<svg xmlns="http://www.w3.org/2000/svg" viewBox="0 0 1200 300">
  <!-- Sky background -->
  <rect width="1200" height="300" fill="#e0f2fe"/>
  
  <!-- Background hills - darkest -->
  <path d="M0,180 
           C50,160 100,190 150,175 
           S250,150 300,165 
           S400,190 450,170 
           S550,150 600,160 
           S700,185 750,165 
           S850,145 900,155 
           S1000,180 1050,165 
           S1150,140 1200,160 
           L1200,300 L0,300 Z" 
        fill="#508484"/>
  
  <!-- Middle hills -->
  <path d="M0,200 
           C60,185 120,205 180,195 
           S300,175 360,190 
           S480,215 540,200 
           S660,180 720,195 
           S840,215 900,195 
           S1020,180 1080,195 
           S1140,205 1200,190
           L1200,300 L0,300 Z" 
        fill="#79C99E"/>
  
  <!-- Foreground hills - lightest -->
  <path d="M0,230 
           C100,210 200,240 300,220 
           S500,200 600,220 
           S800,240 900,220 
           S1100,200 1200,230
           L1200,300 L0,300 Z" 
        fill="#C1F7DC"/>
</svg>
