<?xml version="1.0" encoding="UTF-8"?>
<svg id="Layer_1" xmlns="http://www.w3.org/2000/svg" version="1.1" xmlns:xlink="http://www.w3.org/1999/xlink" viewBox="0 0 830.9 393.9">
  <!-- Generator: Adobe Illustrator 29.3.1, SVG Export Plug-In . SVG Version: 2.1.0 Build 151)  -->
  <defs>
    <style>
      .st0 {
        fill: url(#linear-gradient2);
      }

      .st1 {
        fill: url(#linear-gradient10);
      }

      .st2 {
        fill: url(#linear-gradient1);
      }

      .st3 {
        fill: url(#linear-gradient9);
      }

      .st4 {
        fill: url(#linear-gradient8);
      }

      .st5 {
        fill: url(#linear-gradient7);
      }

      .st6 {
        fill: url(#linear-gradient4);
      }

      .st7 {
        fill: #c8e6c9;
      }

      .st8 {
        fill: url(#linear-gradient5);
      }

      .st9 {
        fill: url(#linear-gradient3);
      }

      .st10 {
        fill: url(#linear-gradient6);
      }

      .st11 {
        fill: url(#linear-gradient);
      }
    </style>
    <linearGradient id="linear-gradient" x1="513.5" y1="369.2" x2="719.6" y2="250.3" gradientTransform="translate(-714.9 -410.3) rotate(0) scale(2.3 2.5) skewX(-.6)" gradientUnits="userSpaceOnUse">
      <stop offset="0" stop-color="#fff"/>
      <stop offset=".5" stop-color="#fff"/>
      <stop offset="1" stop-color="#c8e6c9" stop-opacity=".5"/>
    </linearGradient>
    <linearGradient id="linear-gradient1" x1="522.5" y1="360.8" x2="687.5" y2="195.9" xlink:href="#linear-gradient"/>
    <linearGradient id="linear-gradient2" x1="502.3" y1="234.6" x2="669.4" y2="234.6" gradientTransform="translate(-641.9 -555.1) rotate(7.2) scale(2.3 2.5)" gradientUnits="userSpaceOnUse">
      <stop offset="0" stop-color="#fff"/>
      <stop offset=".6" stop-color="#fff"/>
      <stop offset="1" stop-color="#c8e6c9" stop-opacity=".5"/>
    </linearGradient>
    <linearGradient id="linear-gradient3" x1="503" y1="218.6" x2="612" y2="231.6" gradientTransform="translate(-714.9 -410.3) rotate(0) scale(2.3 2.5) skewX(-.6)" gradientUnits="userSpaceOnUse">
      <stop offset="0" stop-color="#fff"/>
      <stop offset=".6" stop-color="#fff"/>
      <stop offset="1" stop-color="#c8e6c9" stop-opacity=".5"/>
    </linearGradient>
    <linearGradient id="linear-gradient4" x1="565.2" y1="284.7" x2="474.3" y2="127.3" xlink:href="#linear-gradient"/>
    <linearGradient id="linear-gradient5" x1="550.9" y1="267.2" x2="418.2" y2="134.5" gradientTransform="translate(-714.9 -410.3) rotate(0) scale(2.3 2.5) skewX(-.6)" gradientUnits="userSpaceOnUse">
      <stop offset="0" stop-color="#fff"/>
      <stop offset=".4" stop-color="#fefefe" stop-opacity="1"/>
      <stop offset=".6" stop-color="#fbfdfb" stop-opacity="1"/>
      <stop offset=".7" stop-color="#f7fbf7" stop-opacity=".9"/>
      <stop offset=".8" stop-color="#f1f8f1" stop-opacity=".9"/>
      <stop offset=".8" stop-color="#e9f5ea" stop-opacity=".8"/>
      <stop offset=".9" stop-color="#e0f1e0" stop-opacity=".7"/>
      <stop offset=".9" stop-color="#d5ebd5" stop-opacity=".6"/>
      <stop offset="1" stop-color="#c8e6c9" stop-opacity=".5"/>
      <stop offset="1" stop-color="#c8e6c9" stop-opacity=".5"/>
    </linearGradient>
    <linearGradient id="linear-gradient6" x1="518.2" y1="311.8" x2="397.2" y2="102.2" xlink:href="#linear-gradient"/>
    <linearGradient id="linear-gradient7" x1="478.2" y1="334.9" x2="355.1" y2="121.7" xlink:href="#linear-gradient"/>
    <linearGradient id="linear-gradient8" x1="481.5" y1="336.6" x2="306.5" y2="161.7" xlink:href="#linear-gradient"/>
    <linearGradient id="linear-gradient9" x1="458.9" y1="359.2" x2="291.2" y2="191.4" xlink:href="#linear-gradient"/>
    <linearGradient id="linear-gradient10" x1="440.4" y1="377.7" x2="293.4" y2="230.7" xlink:href="#linear-gradient"/>
  </defs>
  <path class="st7" d="M426,396.8l586.2-2.8c-3.9-25.4-6.3-51.1-7.1-76.9l-579.1,79.7Z"/>
  <path class="st11" d="M426,396.8l579.1-79.7c-7.8-25-14.1-50.5-18.7-76.4l-560.4,156.1Z"/>
  <path class="st7" d="M426,396.8l560.4-156.1c-11.5-24-21.5-48.7-29.9-74.1l-530.5,230.2Z"/>
  <path class="st2" d="M426,396.8l530.5-230.2c-14.8-22.4-28.1-45.9-39.9-70.2l-490.6,300.3Z"/>
  <path class="st7" d="M426,396.8L916.7,96.5c-17.7-20.4-34.1-42.1-49-64.9l-441.6,365.2Z"/>
  <path class="st0" d="M426,396.8L867.6,31.6c-20.4-17.9-39.6-37.2-57.5-57.8l-384.1,423Z"/>
  <path class="st7" d="M426,396.8L810.1-26.2c-22.6-15.2-44.1-32-64.4-50.2l-319.7,473.2Z"/>
  <path class="st9" d="M426,396.8L745.7-76.4c-24.2-12.2-47.6-26.2-69.9-41.8l-249.8,515Z"/>
  <path class="st7" d="M426,396.8L675.8-118.2c-25.4-9.1-50.1-20-73.9-32.6l-175.8,547.6Z"/>
  <path class="st6" d="M426,396.8l175.8-547.6c-25.9-5.9-51.4-13.7-76.3-23.3l-99.5,570.9Z"/>
  <path class="st7" d="M426,396.8l99.5-570.9c-26.1-2.4-52.1-6.6-77.7-12.6l-21.8,583.5Z"/>
  <path class="st8" d="M426,396.8l21.8-583.5c-26.1,1.2-52.3.7-78.3-1.7l56.5,585.2Z"/>
  <path class="st7" d="M426,396.8l-56.5-585.2c-25.6,4.8-51.4,7.8-77.3,9l133.8,576.2Z"/>
  <path class="st10" d="M426,396.8L292.2-179.4c-24.4,8.2-49.2,14.7-74.4,19.5l208.2,556.7Z"/>
  <path class="st7" d="M426,396.8L217.8-159.9c-22.6,11.6-46,21.6-69.8,30L426,396.8Z"/>
  <path class="st5" d="M426,396.8L148-129.9c-20.5,14.8-41.9,28.2-64,40.2l342,486.5Z"/>
  <path class="st7" d="M426,396.8L84-89.7c-18.1,17.9-37.2,34.6-57.2,49.9l399.2,436.5Z"/>
  <path class="st4" d="M426,396.8L26.8-39.7C11.7-19.1-4.6.6-22.1,19.2l448.1,377.6Z"/>
  <path class="st7" d="M426,396.8L-22.1,19.2c-11.6,22.9-24.6,45.1-38.9,66.4l487,311.2Z"/>
  <path class="st3" d="M426,396.8L-61,85.6c-8.1,24.8-17.8,49-28.8,72.6l515.8,238.6Z"/>
  <path class="st7" d="M426,396.8L-89.8,158.2c-4.6,26-10.8,51.7-18.5,76.9l534.3,161.7Z"/>
  <path class="st1" d="M426,396.8L-108.3,235c-.9,26.6-3.5,53.2-7.7,79.5l542,82.3Z"/>
  <path class="st7" d="M426,396.8L-116,314.5c2.8,26.4,3.9,53,3.4,79.7l538.6,2.6Z"/>
</svg>