<?xml version="1.0" encoding="UTF-8"?>
<svg id="Layer_1" xmlns="http://www.w3.org/2000/svg" version="1.1" viewBox="0 0 1124 299">
  <!-- Generator: Adobe Illustrator 29.2.1, SVG Export Plug-In . SVG Version: 2.1.0 Build 116)  -->
  <defs>
    <style>
      .st0 {
        fill: #b44040;
      }
    </style>
  </defs>
  <path class="st0" d="M563.6,86c20.6,13.9,39.8,29.6,60.4,43.5,79.3,53.5,169.4,96.1,261.2,123.2,13.9,4.1,28.2,7,42.1,10.9,2.1.6,7.4,1.4,8.1,3.4-22.6-2.6-52-6.3-73.3,3.4-6,2.8-9.4,8.3-15.4,9.9-103.6-45.8-198.9-110.2-279.4-189.9l40,51.6c42.4,49,92.1,90.8,144.7,128.4l-25.3-6c-12.8-1.2-24.8.4-35.7,7.4s-6.8,8-9.6,6.8c-50.2-56.2-91.8-120.4-118.8-190.9-1.2,0-.8,9.8-.7,11.5,1.4,24,4,50.6,6.9,74.6,4.1,33.2,10.9,65.9,17.5,98.7-15.7-18.4-32.9-16.2-50.2-1.4,1.8-14.5,6.5-28.7,9.1-43.2,8.8-47.6,12.3-96.1,16-144.3-28.1,71.4-68.9,137.9-121,194.2-2.2.5-8-9.7-11-12-15.7-12.1-39.6.6-56.1,4.6-1.4.3-4.4,1.8-4.1-.7,65.1-44.3,128.9-100.8,175.8-164.5,2.7-3.7,6.6-7.6,7.6-12.1-38.5,36-78.5,70.2-121.8,100.3-49.1,34.1-101.7,63.6-156.6,87.2,9.4-14.7,1-21.6-14.3-21.8s-5.5,1.3-8.1,1.4c-21.1.5-40.8,3.4-61.8,5.4l96.4-29.3c98.4-35.8,191.9-85.8,272.9-152.3-.4-17.8,1.3-36.5.3-54.2-.2-2.9-2.3-5.3-2.3-6.7,0-3.7,3.6-6.2,7.1-3.5s-.3,6.1-.8,10.2c-2.3,16.5,1.7,39,.4,56.2h-.2Z"/>
  <path class="st0" d="M566,29.2c4.7,1.4,9.6,4.8,14.7,5.2s6-1.3,9-1.1c5,.2,14.1,2.3,17,6.8-15.7-1.7-25,15.1-40.8,12.2v-23.1h0Z"/>
  <g>
    <path class="st0" d="M830.9,45.5c2,1.4-.8,42.2-.9,48.3,4.9,2.7,4.8,7.3,8,11.9,8.6,12.4,21.5,27.8,31.7,39,29.8,32.8,64.5,60.4,99.9,86.9-18.7-6.3-35.9-6.8-51.6,6.2-36.4-41.5-68.3-88.4-87-140.7-2.4,0-1.5,6-1.4,7.5,2.6,39.4,8.2,78.6,15,117.4l-30-10.4c7.8-37.7,12-76.2,13.7-114.6l-12.4,27.6c-12.1,24.2-25.2,48.1-41.9,69.5-1.5.6-19.7-7.6-22.2-9.1s-2.7-1.2-2.3-3.1c22.3-19,41.4-41.1,60.3-63.3l13-18.9c-13.2,12.3-26.2,25-40.1,36.6-10.7,9-36.4,31.2-47.7,36.5-6.6,3.1-12.4-2.4-18.1-5.9,38.8-21.3,75.7-45.6,110.7-72.6-1.7-15.2,4.4-32.3-2.1-46.9.9-1.7,4.2-2.9,5.4-2.1v.2Z"/>
    <path class="st0" d="M1105.3,227.5c.3,2.4-3.1,1.3-4.6,1.2-15.5-1.4-34.3-3.6-48.9,3-3,1.4-9.4,7.4-11,7.5-3.4.2-47.9-22.8-54.6-26.4-53.6-29.4-105.9-67.9-148.5-111.6l70.2,47.3c61.6,35.2,127.7,64,197.4,79.1h0Z"/>
    <path class="st0" d="M832.3,52.3c8.2,8,22.4.2,29.9,9.5-11.5-1.8-18.3,10.3-29.9,9.5v-19Z"/>
  </g>
  <g>
    <path class="st0" d="M24.7,227.5c-1.4,0-7.8,3.9-8.8,0,100.5-21.9,195.1-69,275.1-133.1.9-12.8,1.1-26,.7-38.8,0-3.2-3.6-10.2,2-10.1,6.5,0,1,7.4.6,10.1-1.8,12.8,2.8,26.3.2,38.6l34.8,25.7,76.5,47.8-14.6,6.6-3-.5c-30.4-21-58.1-45.6-85.6-70l34.6,43.5,36,34.6c.5,2.1-1.7,2.9-3.1,3.6-2.8,1.6-21,9.7-22.7,8.6-15.4-21.6-28.7-44.5-40.6-68.2l-12.4-27.6c1.5,37.9,5.4,76.2,13.7,113.3l-31.3,11.7c1.4-11.3,4.7-22.4,6.4-33.6,4.5-28.7,7.5-59.1,9.9-88,0-1.5,1-5.1-1.3-4.7-15.3,41.3-39.1,81.8-66.6,116.1-3.4,4.3-17,21.5-20.4,23.2s-7.6-3.9-10.8-5.6c-8.7-4.5-16.9-3.5-26.4-3.2l-17.1,4.6c42.2-28.5,80.2-62.7,113.4-101.2l22.4-29.9c-59.3,57.8-129.1,104.4-204.7,138.3-2.4.2-6-5.3-9-6.9-1.5-.8-15.7-5.2-16.6-5.2-10.2,0-21.2-.6-31.2,0v.3Z"/>
    <path class="st0" d="M327,61.8c-11.3-1.8-18.5,10.8-29.9,9.5v-17.7c2.9-.2,4.5,2.2,7.5,2.6,7.1,1,17.8-2.1,22.3,5.5h.1Z"/>
  </g>
</svg>